<svg width="0" height="0" class="hidden">
  <symbol xmlns="http://www.w3.org/2000/svg" viewBox="0 0 20 20" id="arrow">
    <path fill-rule="evenodd" clip-rule="evenodd" d="M3 10v1h11v3l4-3.5L14 7v3H3z"></path>
  </symbol>
  <symbol xmlns="http://www.w3.org/2000/svg" viewBox="0 0 20 20" id="bookmark">
    <path fill-rule="evenodd" clip-rule="evenodd" d="M5 1h10a2 2 0 012 2v16l-6.905-5L3 19V3a2 2 0 012-2z"></path>
  </symbol>
  <symbol xmlns="http://www.w3.org/2000/svg" viewBox="0 0 15 15" id="comment">
    <path fill-rule="evenodd" clip-rule="evenodd" d="M11.135 12v3L8.36 12H2.25a1.5 1.5 0 01-1.5-1.5V3a1.5 1.5 0 011.5-1.5h10.5a1.5 1.5 0 011.5 1.5v7.5a1.5 1.5 0 01-1.5 1.5h-1.615z"></path>
  </symbol>
  <symbol xmlns="http://www.w3.org/2000/svg" viewBox="0 0 19 16" id="images">
    <path fill-rule="evenodd" clip-rule="evenodd" d="M3 3.5v-2a1 1 0 011-1h14a1 1 0 011 1v10a1 1 0 01-1 1h-2v2a1 1 0 01-1 1H1a1 1 0 01-1-1v-10a1 1 0 011-1h2zm12 9H4a1 1 0 01-1-1v-7H1v10h14v-2zM4 1.5v10h14v-10H4zm14 10H4v-1l3-3 3 2 4-4 4 5v1zm-8.5-5a1.5 1.5 0 110-3 1.5 1.5 0 010 3z"></path>
  </symbol>
  <symbol xmlns="http://www.w3.org/2000/svg" viewBox="0 0 13 13" id="like">
    <path fill-rule="evenodd" clip-rule="evenodd" d="M11.84 1.96C11.17 1.212 10.28.8 9.334.8c-.947 0-1.74.412-2.41 1.16l-.425.68-.425-.68C5.406 1.212 4.612.8 3.665.8c-.945 0-1.835.412-2.504 1.16-1.381 1.546-1.381 4.06 0 5.604l4.949 4.757a.523.523 0 00.393.179c.14 0 .28-.06.387-.18l4.95-4.756c1.38-1.544 1.38-4.058 0-5.604z"></path>
  </symbol>
  <symbol xmlns="http://www.w3.org/2000/svg" viewBox="0 0 18 17" id="home">
    <path fill-rule="evenodd" clip-rule="evenodd" d="M2 17h5v-6h4v6h5v-7h2L9 0 0 10h2v7z"></path>
  </symbol>
  <symbol xmlns="http://www.w3.org/2000/svg" viewBox="0 0 15 15" id="clock">
    <path fill-rule="evenodd" clip-rule="evenodd" d="M7.5 14.25a6.75 6.75 0 110-13.5 6.75 6.75 0 010 13.5zm.75-6.75v-3a.75.75 0 00-1.5 0v3.75c0 .414.336.75.75.75h2.25a.75.75 0 000-1.5h-1.5z"></path>
  </symbol>
  <symbol xmlns="http://www.w3.org/2000/svg" viewBox="0 0 18 18" id="pencil">
    <path fill-rule="evenodd" clip-rule="evenodd" d="M0 14.2V18h3.8l11-11.1L11 3.1 0 14.2zM17.7 4c.4-.4.4-1 0-1.4L15.4.3c-.4-.4-1-.4-1.4 0l-1.8 1.8L16 5.9 17.7 4z"></path>
  </symbol>
  <symbol xmlns="http://www.w3.org/2000/svg" viewBox="0 0 15 15" id="views">
    <path fill-rule="evenodd" clip-rule="evenodd" d="M15 7.262s-3 5.113-7.5 5.113S0 7.262 0 7.262s3-4.637 7.5-4.637S15 7.262 15 7.262zM7.5 4.875a2.629 2.629 0 012.625 2.626A2.626 2.626 0 117.5 4.875zm-.001 3.938c.724 0 1.31-.591 1.31-1.316 0-.726-.587-1.317-1.31-1.317-.724 0-1.311.59-1.311 1.316 0 .726.587 1.317 1.31 1.317z"></path>
  </symbol>
</svg>